<mxfile host="app.diagrams.net" agent="Mozilla/5.0 (Windows NT 10.0; Win64; x64; rv:137.0) Gecko/20100101 Firefox/137.0" version="26.2.12">
  <diagram name="Page-1" id="R2yr6QyxG9KFdtppZtPF">
    <mxGraphModel dx="1740" dy="890" grid="1" gridSize="10" guides="1" tooltips="1" connect="1" arrows="1" fold="1" page="1" pageScale="1" pageWidth="26000" pageHeight="1920" math="0" shadow="0">
      <root>
        <mxCell id="0" />
        <mxCell id="1" parent="0" />
        <mxCell id="Vr1m3Knhlyg30zfmb3pl-12" value="&lt;font style=&quot;font-size: 18px;&quot;&gt;NhanVien&lt;/font&gt;" style="whiteSpace=wrap;html=1;align=center;" vertex="1" parent="1">
          <mxGeometry x="9410" y="340" width="100" height="40" as="geometry" />
        </mxCell>
        <mxCell id="Vr1m3Knhlyg30zfmb3pl-13" value="&lt;font style=&quot;font-size: 18px;&quot;&gt;NgaySinh&lt;/font&gt;" style="ellipse;whiteSpace=wrap;html=1;align=center;fontStyle=4;" vertex="1" parent="1">
          <mxGeometry x="9250" y="240" width="100" height="40" as="geometry" />
        </mxCell>
        <mxCell id="Vr1m3Knhlyg30zfmb3pl-14" value="&lt;font style=&quot;font-size: 18px;&quot;&gt;HoVaTen&lt;/font&gt;" style="ellipse;whiteSpace=wrap;html=1;align=center;" vertex="1" parent="1">
          <mxGeometry x="9180" y="290" width="100" height="40" as="geometry" />
        </mxCell>
        <mxCell id="Vr1m3Knhlyg30zfmb3pl-16" value="NgayVaoLam" style="ellipse;whiteSpace=wrap;html=1;align=center;" vertex="1" parent="1">
          <mxGeometry x="9590" y="270" width="100" height="40" as="geometry" />
        </mxCell>
        <mxCell id="Vr1m3Knhlyg30zfmb3pl-17" value="&lt;font style=&quot;font-size: 18px;&quot;&gt;SDT&lt;/font&gt;" style="ellipse;whiteSpace=wrap;html=1;align=center;" vertex="1" parent="1">
          <mxGeometry x="9380" y="230" width="100" height="40" as="geometry" />
        </mxCell>
        <mxCell id="Vr1m3Knhlyg30zfmb3pl-18" value="&lt;font style=&quot;font-size: 18px;&quot;&gt;MaNV&lt;/font&gt;" style="ellipse;whiteSpace=wrap;html=1;align=center;fontStyle=4;" vertex="1" parent="1">
          <mxGeometry x="9170" y="350" width="110" height="40" as="geometry" />
        </mxCell>
        <mxCell id="Vr1m3Knhlyg30zfmb3pl-19" value="DiaChi" style="ellipse;whiteSpace=wrap;html=1;align=center;" vertex="1" parent="1">
          <mxGeometry x="9500" y="200" width="100" height="40" as="geometry" />
        </mxCell>
        <mxCell id="Vr1m3Knhlyg30zfmb3pl-21" value="" style="endArrow=none;html=1;rounded=0;exitX=1;exitY=0.5;exitDx=0;exitDy=0;entryX=0;entryY=0.5;entryDx=0;entryDy=0;" edge="1" parent="1" source="Vr1m3Knhlyg30zfmb3pl-18" target="Vr1m3Knhlyg30zfmb3pl-12">
          <mxGeometry relative="1" as="geometry">
            <mxPoint x="9500" y="600" as="sourcePoint" />
            <mxPoint x="9400" y="370" as="targetPoint" />
          </mxGeometry>
        </mxCell>
        <mxCell id="Vr1m3Knhlyg30zfmb3pl-24" value="" style="endArrow=none;html=1;rounded=0;" edge="1" parent="1">
          <mxGeometry relative="1" as="geometry">
            <mxPoint x="9540" y="250" as="sourcePoint" />
            <mxPoint x="9480" y="340" as="targetPoint" />
          </mxGeometry>
        </mxCell>
        <mxCell id="Vr1m3Knhlyg30zfmb3pl-25" value="" style="endArrow=none;html=1;rounded=0;entryX=1;entryY=0.5;entryDx=0;entryDy=0;exitX=0.4;exitY=1;exitDx=0;exitDy=0;exitPerimeter=0;" edge="1" parent="1" source="Vr1m3Knhlyg30zfmb3pl-16" target="Vr1m3Knhlyg30zfmb3pl-12">
          <mxGeometry relative="1" as="geometry">
            <mxPoint x="9500" y="600" as="sourcePoint" />
            <mxPoint x="9660" y="600" as="targetPoint" />
          </mxGeometry>
        </mxCell>
        <mxCell id="Vr1m3Knhlyg30zfmb3pl-26" value="" style="endArrow=none;html=1;rounded=0;entryX=0;entryY=0.25;entryDx=0;entryDy=0;exitX=1;exitY=0.5;exitDx=0;exitDy=0;" edge="1" parent="1" source="Vr1m3Knhlyg30zfmb3pl-14" target="Vr1m3Knhlyg30zfmb3pl-12">
          <mxGeometry relative="1" as="geometry">
            <mxPoint x="9500" y="280" as="sourcePoint" />
            <mxPoint x="9660" y="280" as="targetPoint" />
          </mxGeometry>
        </mxCell>
        <mxCell id="Vr1m3Knhlyg30zfmb3pl-27" value="" style="endArrow=none;html=1;rounded=0;exitX=0.5;exitY=0;exitDx=0;exitDy=0;entryX=0.5;entryY=1;entryDx=0;entryDy=0;" edge="1" parent="1" source="Vr1m3Knhlyg30zfmb3pl-12" target="Vr1m3Knhlyg30zfmb3pl-17">
          <mxGeometry relative="1" as="geometry">
            <mxPoint x="9520" y="370" as="sourcePoint" />
            <mxPoint x="9670" y="360" as="targetPoint" />
          </mxGeometry>
        </mxCell>
        <mxCell id="Vr1m3Knhlyg30zfmb3pl-28" value="" style="endArrow=none;html=1;rounded=0;exitX=1;exitY=1;exitDx=0;exitDy=0;entryX=0.25;entryY=0;entryDx=0;entryDy=0;" edge="1" parent="1" source="Vr1m3Knhlyg30zfmb3pl-13" target="Vr1m3Knhlyg30zfmb3pl-12">
          <mxGeometry relative="1" as="geometry">
            <mxPoint x="9500" y="600" as="sourcePoint" />
            <mxPoint x="9660" y="600" as="targetPoint" />
          </mxGeometry>
        </mxCell>
        <mxCell id="Vr1m3Knhlyg30zfmb3pl-32" value="d" style="strokeWidth=2;html=1;shape=mxgraph.flowchart.start_2;whiteSpace=wrap;" vertex="1" parent="1">
          <mxGeometry x="9440" y="460" width="40" height="50" as="geometry" />
        </mxCell>
      </root>
    </mxGraphModel>
  </diagram>
</mxfile>
